HIERARCHY
ROOT Hips
{
	OFFSET 0.053599 88.859886 3.107447
	CHANNELS 6 Xposition Yposition Zposition Zrotation Yrotation Xrotation 
	JOINT Spine
	{
		OFFSET -0.000000 8.814246 -2.080107
		CHANNELS 3 Zrotation Yrotation Xrotation
		JOINT Spine1
		{
			OFFSET 0.000000 8.844141 0.000000
			CHANNELS 3 Zrotation Yrotation Xrotation
			JOINT Spine2
			{
				OFFSET -0.000000 11.682268 0.000000
				CHANNELS 3 Zrotation Yrotation Xrotation
				JOINT Spine3
				{
					OFFSET 0.000000 11.746700 0.000000
					CHANNELS 3 Zrotation Yrotation Xrotation
					JOINT Neck
					{
						OFFSET -0.000000 17.658264 -0.000000
						CHANNELS 3 Zrotation Yrotation Xrotation
						JOINT Neck1
						{
							OFFSET -0.000000 5.101515 -0.000000
							CHANNELS 3 Zrotation Yrotation Xrotation
							JOINT Head
							{
								OFFSET 0.000000 5.101515 0.000000
								CHANNELS 3 Zrotation Yrotation Xrotation
								JOINT HeadEnd
								{
									OFFSET 0.000000 11.655085 0.000000
									CHANNELS 3 Zrotation Yrotation Xrotation
									End Site
									{
										OFFSET 0.000000 0.000000 0.000000
									}
								}
							}
						}
					}
					JOINT RightShoulder
					{
						OFFSET -2.625389 11.175210 0.000000
						CHANNELS 3 Zrotation Yrotation Xrotation
						JOINT RightArm
						{
							OFFSET -0.000000 10.434715 -0.000000
							CHANNELS 3 Zrotation Yrotation Xrotation
							JOINT RightForeArm
							{
								OFFSET -0.000000 29.628420 0.000000
								CHANNELS 3 Zrotation Yrotation Xrotation
								JOINT RightHand
								{
									OFFSET -0.000000 22.857611 0.000000
									CHANNELS 3 Zrotation Yrotation Xrotation
									JOINT RightHandThumb1
									{
										OFFSET -2.867323 3.959563 2.944291
										CHANNELS 3 Zrotation Yrotation Xrotation
										JOINT RightHandThumb2
										{
											OFFSET 0.000000 3.350399 0.000000
											CHANNELS 3 Zrotation Yrotation Xrotation
											JOINT RightHandThumb3
											{
												OFFSET 0.000000 3.756509 -0.000000
												CHANNELS 3 Zrotation Yrotation Xrotation
												JOINT RightHandThumb4
												{
													OFFSET 0.000000 3.147345 0.000000
													CHANNELS 3 Zrotation Yrotation Xrotation
													End Site
													{
														OFFSET 0.000000 0.000000 0.000000
													}
												}
											}
										}
									}
									JOINT RightHandIndex1
									{
										OFFSET -0.086752 10.030893 2.345280
										CHANNELS 3 Zrotation Yrotation Xrotation
										JOINT RightHandIndex2
										{
											OFFSET -0.000000 4.061090 0.000000
											CHANNELS 3 Zrotation Yrotation Xrotation
											JOINT RightHandIndex3
											{
												OFFSET -0.000000 3.248873 0.000000
												CHANNELS 3 Zrotation Yrotation Xrotation
												JOINT RightHandIndex4
												{
													OFFSET 0.000000 2.639709 -0.000000
													CHANNELS 3 Zrotation Yrotation Xrotation
													End Site
													{
														OFFSET 0.000000 0.000000 0.000000
													}
												}
											}
										}
									}
									JOINT RightHandMiddle1
									{
										OFFSET 0.104102 9.502952 0.006768
										CHANNELS 3 Zrotation Yrotation Xrotation
										JOINT RightHandMiddle2
										{
											OFFSET 0.000000 4.568727 0.000000
											CHANNELS 3 Zrotation Yrotation Xrotation
											JOINT RightHandMiddle3
											{
												OFFSET 0.000000 3.654981 -0.000000
												CHANNELS 3 Zrotation Yrotation Xrotation
												JOINT RightHandMiddle4
												{
													OFFSET -0.000000 2.741236 -0.000000
													CHANNELS 3 Zrotation Yrotation Xrotation
													End Site
													{
														OFFSET 0.000000 0.000000 0.000000
													}
												}
											}
										}
									}
									JOINT RightHandRing1
									{
										OFFSET 0.086752 8.921708 -2.267442
										CHANNELS 3 Zrotation Yrotation Xrotation
										JOINT RightHandRing2
										{
											OFFSET -0.000000 4.061090 0.000000
											CHANNELS 3 Zrotation Yrotation Xrotation
											JOINT RightHandRing3
											{
												OFFSET 0.000000 3.654981 -0.000000
												CHANNELS 3 Zrotation Yrotation Xrotation
												JOINT RightHandRing4
												{
													OFFSET 0.000000 2.741236 -0.000000
													CHANNELS 3 Zrotation Yrotation Xrotation
													End Site
													{
														OFFSET 0.000000 0.000000 0.000000
													}
												}
											}
										}
									}
									JOINT RightHandPinky1
									{
										OFFSET -0.173504 7.976997 -4.467199
										CHANNELS 3 Zrotation Yrotation Xrotation
										JOINT RightHandPinky2
										{
											OFFSET 0.000000 3.350399 -0.000000
											CHANNELS 3 Zrotation Yrotation Xrotation
											JOINT RightHandPinky3
											{
												OFFSET -0.000000 2.842763 0.000000
												CHANNELS 3 Zrotation Yrotation Xrotation
												JOINT RightHandPinky4
												{
													OFFSET -0.000000 2.639709 0.000000
													CHANNELS 3 Zrotation Yrotation Xrotation
													End Site
													{
														OFFSET 0.000000 0.000000 0.000000
													}
												}
											}
										}
									}
									JOINT RightForeArmEnd
									{
										OFFSET 0.000000 0.000000 0.000000
										CHANNELS 3 Zrotation Yrotation Xrotation
										End Site
										{
											OFFSET 0.000000 0.000000 0.000000
										}
									}
								}
								JOINT RightArmEnd
								{
									OFFSET 0.000000 0.000000 0.000000
									CHANNELS 3 Zrotation Yrotation Xrotation
									End Site
									{
										OFFSET 0.000000 0.000000 0.000000
									}
								}
							}
						}
					}
					JOINT LeftShoulder
					{
						OFFSET 2.625389 11.175210 0.000000
						CHANNELS 3 Zrotation Yrotation Xrotation
						JOINT LeftArm
						{
							OFFSET 0.000000 10.813635 -0.000000
							CHANNELS 3 Zrotation Yrotation Xrotation
							JOINT LeftForeArm
							{
								OFFSET 0.000000 28.724781 0.000000
								CHANNELS 3 Zrotation Yrotation Xrotation
								JOINT LeftHand
								{
									OFFSET 0.644384 25.716167 -0.328871
									CHANNELS 3 Zrotation Yrotation Xrotation
									JOINT LeftHandThumb1
									{
										OFFSET 2.867323 3.959563 2.944291
										CHANNELS 3 Zrotation Yrotation Xrotation
										JOINT LeftHandThumb2
										{
											OFFSET 0.000000 3.350399 0.000000
											CHANNELS 3 Zrotation Yrotation Xrotation
											JOINT LeftHandThumb3
											{
												OFFSET -0.000000 3.756509 0.000000
												CHANNELS 3 Zrotation Yrotation Xrotation
												JOINT LeftHandThumb4
												{
													OFFSET -0.000000 3.100000 0.000000
													CHANNELS 3 Zrotation Yrotation Xrotation
													End Site
													{
														OFFSET 0.000000 0.000000 0.000000
													}
												}
											}
										}
									}
									JOINT LeftHandIndex1
									{
										OFFSET 0.086752 10.030893 2.345280
										CHANNELS 3 Zrotation Yrotation Xrotation
										JOINT LeftHandIndex2
										{
											OFFSET -0.000000 4.061090 -0.000000
											CHANNELS 3 Zrotation Yrotation Xrotation
											JOINT LeftHandIndex3
											{
												OFFSET 0.000000 3.248873 -0.000000
												CHANNELS 3 Zrotation Yrotation Xrotation
												JOINT LeftHandIndex4
												{
													OFFSET 0.000000 2.639709 -0.000000
													CHANNELS 3 Zrotation Yrotation Xrotation
													End Site
													{
														OFFSET 0.000000 0.000000 0.000000
													}
												}
											}
										}
									}
									JOINT LeftHandMiddle1
									{
										OFFSET -0.104102 9.502952 0.006768
										CHANNELS 3 Zrotation Yrotation Xrotation
										JOINT LeftHandMiddle2
										{
											OFFSET -0.000000 4.568727 -0.000000
											CHANNELS 3 Zrotation Yrotation Xrotation
											JOINT LeftHandMiddle3
											{
												OFFSET 0.000000 3.654981 0.000000
												CHANNELS 3 Zrotation Yrotation Xrotation
												JOINT LeftHandMiddle4
												{
													OFFSET 0.000000 2.741236 -0.000000
													CHANNELS 3 Zrotation Yrotation Xrotation
													End Site
													{
														OFFSET 0.000000 0.000000 0.000000
													}
												}
											}
										}
									}
									JOINT LeftHandRing1
									{
										OFFSET -0.086752 8.921708 -2.267442
										CHANNELS 3 Zrotation Yrotation Xrotation
										JOINT LeftHandRing2
										{
											OFFSET 0.000000 4.061090 0.000000
											CHANNELS 3 Zrotation Yrotation Xrotation
											JOINT LeftHandRing3
											{
												OFFSET 0.000000 3.654981 0.000000
												CHANNELS 3 Zrotation Yrotation Xrotation
												JOINT LeftHandRing4
												{
													OFFSET 0.000000 2.741236 0.000000
													CHANNELS 3 Zrotation Yrotation Xrotation
													End Site
													{
														OFFSET 0.000000 0.000000 0.000000
													}
												}
											}
										}
									}
									JOINT LeftHandPinky1
									{
										OFFSET 0.173504 7.976997 -4.467199
										CHANNELS 3 Zrotation Yrotation Xrotation
										JOINT LeftHandPinky2
										{
											OFFSET -0.000000 3.350399 -0.000000
											CHANNELS 3 Zrotation Yrotation Xrotation
											JOINT LeftHandPinky3
											{
												OFFSET 0.000000 2.842763 0.000000
												CHANNELS 3 Zrotation Yrotation Xrotation
												JOINT LeftHandPinky4
												{
													OFFSET -0.000000 2.639709 -0.000000
													CHANNELS 3 Zrotation Yrotation Xrotation
													End Site
													{
														OFFSET 0.000000 0.000000 0.000000
													}
												}
											}
										}
									}
									JOINT LeftForeArmEnd
									{
										OFFSET 0.000000 0.000000 0.000000
										CHANNELS 3 Zrotation Yrotation Xrotation
										End Site
										{
											OFFSET 0.000000 0.000000 0.000000
										}
									}
								}
								JOINT LeftArmEnd
								{
									OFFSET 0.000000 0.000000 0.000000
									CHANNELS 3 Zrotation Yrotation Xrotation
									End Site
									{
										OFFSET 0.000000 0.000000 0.000000
									}
								}
							}
						}
					}
				}
			}
		}
	}
	JOINT RightUpLeg
	{
		OFFSET -11.289943 0.000000 0.000000
		CHANNELS 3 Zrotation Yrotation Xrotation
		JOINT RightLeg
		{
			OFFSET 0.000000 -38.200325 0.000000
			CHANNELS 3 Zrotation Yrotation Xrotation
			JOINT RightFoot
			{
				OFFSET -0.000000 -39.900856 -0.000000
				CHANNELS 3 Zrotation Yrotation Xrotation
				JOINT RightToeBase
				{
					OFFSET 0.000000 0.000000 15.261641
					CHANNELS 3 Zrotation Yrotation Xrotation
					JOINT RightToeBaseEnd
					{
						OFFSET 0.000000 0.000000 7.370709
						CHANNELS 3 Zrotation Yrotation Xrotation
						End Site
						{
							OFFSET 0.000000 0.000000 0.000000
						}
					}
				}
				JOINT RightLegEnd
				{
					OFFSET 0.000000 0.000000 0.000000
					CHANNELS 3 Zrotation Yrotation Xrotation
					End Site
					{
						OFFSET 0.000000 0.000000 0.000000
					}
				}
			}
			JOINT RightUpLegEnd
			{
				OFFSET 0.000000 0.000000 0.000000
				CHANNELS 3 Zrotation Yrotation Xrotation
				End Site
				{
					OFFSET 0.000000 0.000000 0.000000
				}
			}
		}
	}
	JOINT LeftUpLeg
	{
		OFFSET 11.315661 -0.000000 0.000000
		CHANNELS 3 Zrotation Yrotation Xrotation
		JOINT LeftLeg
		{
			OFFSET -0.000000 -38.200325 -0.000000
			CHANNELS 3 Zrotation Yrotation Xrotation
			JOINT LeftFoot
			{
				OFFSET 0.000000 -39.900856 -0.000000
				CHANNELS 3 Zrotation Yrotation Xrotation
				JOINT LeftToeBase
				{
					OFFSET -0.000000 -0.000000 15.261641
					CHANNELS 3 Zrotation Yrotation Xrotation
					JOINT LeftToeBaseEnd
					{
						OFFSET 0.000000 -0.000000 7.539996
						CHANNELS 3 Zrotation Yrotation Xrotation
						End Site
						{
							OFFSET 0.000000 0.000000 0.000000
						}
					}
				}
				JOINT LeftLegEnd
				{
					OFFSET 0.000000 0.000000 0.000000
					CHANNELS 3 Zrotation Yrotation Xrotation
					End Site
					{
						OFFSET 0.000000 0.000000 0.000000
					}
				}
			}
			JOINT LeftUpLegEnd
			{
				OFFSET 0.000000 0.000000 0.000000
				CHANNELS 3 Zrotation Yrotation Xrotation
				End Site
				{
					OFFSET 0.000000 0.000000 0.000000
				}
			}
		}
	}
}
MOTION
Frames: 4
Frame Time: 0.016667
0.390292 88.696548 2.945670 -0.386332 -1.327573 -10.076817 1.102602 0.013595 7.049997 -0.902790 0.258321 3.261259 0.667573 -1.045857 3.768804 -0.877310 0.026558 4.768408 2.118253 0.568743 5.763313 0.592024 1.457251 -2.690039 -0.492970 -0.861836 -20.004917 0.000000 0.000000 0.000000 93.072464 -0.091784 9.919906 65.257721 -27.394239 4.963868 0.139604 17.188950 24.262508 6.193709 10.764584 -5.788855 19.678633 30.168360 62.229610 -8.259084 -11.820422 -20.080355 -6.166753 -7.793651 -13.812933 0.000000 0.000000 0.000000 11.134935 -10.954104 1.902795 9.479256 0.448780 1.021331 9.228275 0.019170 1.003275 0.000000 0.000000 0.000000 10.348014 -5.286506 0.462435 8.131654 0.485304 0.361894 8.555529 -0.007558 0.325258 0.000000 0.000000 0.000000 11.344665 2.602937 0.053157 8.618297 -0.958374 -0.581510 8.436882 0.008122 -0.405515 0.000000 0.000000 0.000000 10.319739 11.207342 -1.327495 8.202262 -1.858925 -1.763938 8.001982 0.087148 -1.410859 0.000000 0.000000 0.000000 0.000000 0.000000 0.000000 0.000000 0.000000 0.000000 -90.280418 0.096918 5.375915 -70.879616 15.894051 -6.194452 -0.614317 -11.641240 48.469078 1.312934 -12.756141 -13.680564 -19.419224 -30.257689 62.425133 8.082424 11.253945 -19.174623 5.906346 7.529093 -13.529321 0.000000 0.000000 0.000000 -12.996649 -6.680755 4.147020 -8.414581 0.451644 -0.760627 -8.273367 -0.007951 -0.754090 0.000000 0.000000 0.000000 -12.963586 -1.386585 1.948371 -8.193893 0.466066 -0.347017 -8.471683 -0.019323 -0.273919 0.000000 0.000000 0.000000 -16.588634 7.099009 0.148062 -10.640871 -0.967676 0.633654 -10.500539 0.015890 0.503676 0.000000 0.000000 0.000000 -19.160618 16.142151 -2.756542 -12.397209 -1.791508 2.190291 -11.888507 0.213438 1.920825 0.000000 0.000000 0.000000 0.000000 0.000000 0.000000 0.000000 0.000000 0.000000 -0.147298 -9.205552 14.000222 -0.076304 -0.688215 4.804218 -3.204170 -7.141980 17.777964 -0.774465 0.857905 -18.689749 0.000000 0.000000 0.000000 0.000000 0.000000 0.000000 0.000000 0.000000 0.000000 -1.106761 -5.710958 8.579258 0.059138 0.262217 10.593507 3.759068 -0.180816 16.594303 0.268139 -0.354396 -20.729836 0.000000 0.000000 0.000000 0.000000 0.000000 0.000000 0.000000 0.000000 0.000000 
0.389966 88.695496 2.951260 -0.395893 -1.308656 -10.079533 1.111511 0.016380 7.032755 -0.918035 0.263070 3.263096 0.671551 -1.028936 3.809626 -0.901286 0.037854 4.795143 2.101595 0.571209 5.721134 0.584183 1.437604 -2.716982 -0.488308 -0.857229 -20.005390 0.000000 0.000000 0.000000 93.016724 -0.083129 9.928032 65.231720 -27.421957 5.025265 0.132369 17.220245 24.427814 6.232031 10.736365 -5.815229 19.711990 30.156288 62.191196 -8.297144 -11.893257 -20.190134 -6.196973 -7.837489 -13.886523 0.000000 0.000000 0.000000 11.480651 -11.006618 1.895439 9.639141 0.441676 1.044631 9.388844 0.012274 1.023582 0.000000 0.000000 0.000000 10.676903 -5.340622 0.464689 8.286777 0.482700 0.371273 8.710864 -0.010218 0.333068 0.000000 0.000000 0.000000 11.634647 2.553041 0.055255 8.778330 -0.954200 -0.593962 8.597913 0.011703 -0.415216 0.000000 0.000000 0.000000 10.559955 11.173956 -1.314240 8.350291 -1.845557 -1.800767 8.149986 0.098960 -1.440592 0.000000 0.000000 0.000000 0.000000 0.000000 0.000000 0.000000 0.000000 0.000000 -90.253258 0.114626 5.361999 -70.867203 16.008179 -6.284183 -0.618576 -11.729146 48.580883 0.909226 -12.659888 -13.637857 -19.605791 -30.202761 62.243626 8.265895 11.619260 -19.730793 6.057797 7.769971 -13.912716 0.000000 0.000000 0.000000 -14.462276 -6.409552 3.632974 -9.297978 0.440337 -0.788968 -9.148088 -0.019808 -0.779340 0.000000 0.000000 0.000000 -14.356396 -1.139050 1.585745 -9.071888 0.460830 -0.361159 -9.350767 -0.023952 -0.284596 0.000000 0.000000 0.000000 -17.989983 7.326993 -0.010322 -11.566473 -0.957861 0.655279 -11.421830 0.023436 0.519501 0.000000 0.000000 0.000000 -20.464378 16.319712 -2.715543 -13.259885 -1.761421 2.256278 -12.748899 0.238838 1.972324 0.000000 0.000000 0.000000 0.000000 0.000000 0.000000 0.000000 0.000000 0.000000 -0.156292 -9.221948 14.033974 -0.077126 -0.690218 4.764458 -3.190898 -7.126900 17.785631 -0.777952 0.862049 -18.696678 0.000000 0.000000 0.000000 0.000000 0.000000 0.000000 0.000000 0.000000 0.000000 -1.111288 -5.724292 8.572268 0.058639 0.259653 10.619498 3.754100 -0.208240 16.559402 0.263790 -0.350995 -20.722641 0.000000 0.000000 0.000000 0.000000 0.000000 0.000000 0.000000 0.000000 0.000000 
0.390072 88.694870 2.959464 -0.402786 -1.282799 -10.080116 1.120687 0.020400 7.013255 -0.933441 0.269951 3.260556 0.671381 -1.003297 3.856482 -0.929790 0.053841 4.822950 2.081011 0.574456 5.669364 0.574781 1.414984 -2.751293 -0.482237 -0.852813 -20.006306 0.000000 0.000000 0.000000 92.952110 -0.075275 9.934824 65.226906 -27.431923 5.068727 0.127006 17.256470 24.602463 6.262359 10.718879 -5.856261 19.741009 30.145844 62.157757 -8.329213 -11.958525 -20.286163 -6.222517 -7.875461 -13.950346 0.000000 0.000000 0.000000 11.803744 -11.055704 1.892492 9.797351 0.434486 1.067160 9.549121 0.005250 1.043320 0.000000 0.000000 0.000000 10.981420 -5.390887 0.468171 8.438403 0.479989 0.380490 8.863069 -0.012966 0.340700 0.000000 0.000000 0.000000 11.893606 2.508105 0.052294 8.930855 -0.949843 -0.606570 8.753447 0.015477 -0.425064 0.000000 0.000000 0.000000 10.768988 11.145694 -1.309842 8.488601 -1.831766 -1.837713 8.291032 0.111243 -1.471289 0.000000 0.000000 0.000000 0.000000 0.000000 0.000000 0.000000 0.000000 0.000000 -90.223602 0.133213 5.344832 -70.848465 16.133509 -6.379137 -0.620191 -11.841441 48.748585 0.563012 -12.520199 -13.596490 -19.771635 -30.155106 62.081818 8.425544 11.946407 -20.224993 6.191167 7.986182 -14.253099 0.000000 0.000000 0.000000 -15.788953 -6.163618 3.176940 -10.115119 0.429069 -0.816369 -9.956795 -0.031694 -0.803829 0.000000 0.000000 0.000000 -15.616032 -0.915693 1.259335 -9.886350 0.455470 -0.375083 -10.164673 -0.028675 -0.295066 0.000000 0.000000 0.000000 -19.264605 7.533099 -0.164518 -12.427814 -0.947826 0.676259 -12.281940 0.031102 0.534865 0.000000 0.000000 0.000000 -21.656437 16.481905 -2.699922 -14.068045 -1.730939 2.322402 -13.557152 0.264652 2.023988 0.000000 0.000000 0.000000 0.000000 0.000000 0.000000 0.000000 0.000000 0.000000 -0.172816 -9.239869 14.066903 -0.078017 -0.692519 4.730814 -3.174824 -7.114035 17.791151 -0.781782 0.865724 -18.702839 0.000000 0.000000 0.000000 0.000000 0.000000 0.000000 0.000000 0.000000 0.000000 -1.122139 -5.745927 8.564096 0.058198 0.257409 10.646646 3.748713 -0.247040 16.523170 0.259545 -0.348688 -20.714876 0.000000 0.000000 0.000000 0.000000 0.000000 0.000000 0.000000 0.000000 0.000000 
0.390433 88.694946 2.970384 -0.406535 -1.249473 -10.079651 1.129454 0.025659 6.992716 -0.948611 0.278900 3.254646 0.666491 -0.969611 3.909307 -0.962726 0.073889 4.851702 2.058559 0.578095 5.608380 0.563501 1.389124 -2.793480 -0.475026 -0.849497 -20.007168 0.000000 0.000000 0.000000 92.880592 -0.067903 9.940613 65.245819 -27.424946 5.095756 0.124459 17.294130 24.779188 6.267740 10.718636 -5.903685 19.764694 30.137136 62.130383 -8.355080 -12.013776 -20.364983 -6.242978 -7.906077 -14.002535 0.000000 0.000000 0.000000 12.086568 -11.097501 1.892028 9.940985 0.427458 1.088001 9.696242 -0.001663 1.061682 0.000000 0.000000 0.000000 11.246232 -5.434441 0.471735 8.575716 0.477263 0.389150 9.000461 -0.015697 0.347792 0.000000 0.000000 0.000000 12.111120 2.469198 0.043896 9.066955 -0.945459 -0.618761 8.894618 0.019289 -0.434532 0.000000 0.000000 0.000000 10.941366 11.122041 -1.313717 8.612080 -1.818069 -1.872775 8.420000 0.123502 -1.501207 0.000000 0.000000 0.000000 0.000000 0.000000 0.000000 0.000000 0.000000 0.000000 -90.192619 0.151091 5.326622 -70.821136 16.266134 -6.481177 -0.617515 -11.980929 48.987309 0.275511 -12.347575 -13.554836 -19.916538 -30.114641 61.939499 8.562229 12.235324 -20.657604 6.306787 8.177580 -14.550961 0.000000 0.000000 0.000000 -16.972534 -5.944689 2.780810 -10.861799 0.418433 -0.841055 -10.695463 -0.043005 -0.825797 0.000000 0.000000 0.000000 -16.741596 -0.716974 0.972474 -10.633996 0.450206 -0.388020 -10.910580 -0.033296 -0.304740 0.000000 0.000000 0.000000 -20.413115 7.718293 -0.309934 -13.222872 -0.938054 0.695452 -13.079342 0.038527 0.548922 0.000000 0.000000 0.000000 -22.739964 16.630054 -2.703458 -14.820038 -1.701525 2.385015 -14.312290 0.289617 2.072680 0.000000 0.000000 0.000000 0.000000 0.000000 0.000000 0.000000 0.000000 0.000000 -0.196897 -9.259287 14.099440 -0.078881 -0.694858 4.704857 -3.156362 -7.104861 17.793674 -0.785823 0.868660 -18.708151 0.000000 0.000000 0.000000 0.000000 0.000000 0.000000 0.000000 0.000000 0.000000 -1.140031 -5.777257 8.555845 0.057816 0.255601 10.673506 3.743631 -0.297510 16.488203 0.255573 -0.347480 -20.707558 0.000000 0.000000 0.000000 0.000000 0.000000 0.000000 0.000000 0.000000 0.000000 
